<?xml version='1.0' encoding='utf-8'?>
<svg xmlns="http://www.w3.org/2000/svg" fill="none" viewBox="0 0 128 128">
  <defs>
    <linearGradient id="overcast-drizzle__paint0_linear_1858_8521" x1="88" x2="88" y1="44" y2="68" gradientUnits="userSpaceOnUse">
      <stop stop-color="#b0bccd" />
      <stop offset="1" stop-color="#94a3b8" />
    </linearGradient>
    <linearGradient id="overcast-drizzle__paint1_linear_1858_8521" x1="64.001" x2="64.001" y1="39" y2="89" gradientUnits="userSpaceOnUse">
      <stop stop-color="#f3f7fe" />
      <stop offset="1" stop-color="#e6effc" />
    </linearGradient>
    <clipPath id="overcast-drizzle__clip0_1858_8521">
      <rect width="128" height="128" fill="#fff" />
    </clipPath>
  </defs>
  <g id="overcast-drizzle__Secondary Cloud">
    <path id="overcast-drizzle__Cloud" fill="url(#overcast-drizzle__paint0_linear_1858_8521)" stroke="#94a3b8" stroke-miterlimit="10" d="M83.84 48.693c2.404-3.735 7.375-5.164 11.478-3.516 4.043 1.624 6.496 6.012 5.392 10.26l-.17.653.675-.029c3.281-.137 6.285 2.404 6.285 5.713 0 3.202-2.831 5.726-6.011 5.726H74.977c-3.21 0-6.132-2.382-6.448-5.593-.315-3.2 2.088-6.066 5.235-6.636l.491-.09-.088-.49c-.394-2.198.645-4.442 2.518-5.664 1.925-1.256 4.492-1.32 6.483-.17l.413.237z" />
  </g>
</svg>