<?xml version='1.0' encoding='utf-8'?>
<svg xmlns="http://www.w3.org/2000/svg" fill="none" viewBox="0 0 128 128">
  <defs>
    <linearGradient id="thunderstorms-overcast-rain__paint0_linear_1858_9942" x1="88" x2="88" y1="44" y2="68" gradientUnits="userSpaceOnUse">
      <stop stop-color="#b0bccd" />
      <stop offset="1" stop-color="#94a3b8" />
    </linearGradient>
    <linearGradient id="thunderstorms-overcast-rain__paint1_linear_1858_9942" x1="64.001" x2="64.001" y1="39" y2="89" gradientUnits="userSpaceOnUse">
      <stop stop-color="#f3f7fe" />
      <stop offset="1" stop-color="#e6effc" />
    </linearGradient>
    <linearGradient id="thunderstorms-overcast-rain__paint2_linear_1858_9942" x1="64.528" x2="84.414" y1="66.038" y2="77.457" gradientUnits="userSpaceOnUse">
      <stop stop-color="#f7b23b" />
      <stop offset="1" stop-color="#f6a823" />
    </linearGradient>
    <clipPath id="thunderstorms-overcast-rain__clip0_1858_9942">
      <rect width="128" height="128" fill="#fff" />
    </clipPath>
  </defs>
  <g id="thunderstorms-overcast-rain__Cloud_2">
    <path id="thunderstorms-overcast-rain__Cloud_3" fill="url(#thunderstorms-overcast-rain__paint1_linear_1858_9942)" stroke="#e6effc" stroke-miterlimit="10" d="M55.263 48.475c4.86-7.864 15.035-11.095 23.552-7.532 8.507 3.56 13.323 13.06 11.088 22.022l-.161.65.669-.03c7.01-.306 13.089 5.407 13.089 12.443 0 6.811-5.728 12.472-12.523 12.472H37.954c-6.826.002-12.751-5.33-13.395-12.14-.643-6.808 4.178-13.148 10.884-14.415l.483-.092-.084-.484c-.816-4.745 1.284-9.652 5.263-12.356 3.99-2.712 9.341-2.86 13.475-.373l.423.255z" />
  </g>
</svg>