<?xml version='1.0' encoding='utf-8'?>
<svg xmlns="http://www.w3.org/2000/svg" fill="none" viewBox="0 0 128 128">
  <defs>
    <linearGradient id="thunderstorms-overcast-rain__paint0_linear_1858_9942" x1="88" x2="88" y1="44" y2="68" gradientUnits="userSpaceOnUse">
      <stop stop-color="#b0bccd" />
      <stop offset="1" stop-color="#94a3b8" />
    </linearGradient>
    <linearGradient id="thunderstorms-overcast-rain__paint1_linear_1858_9942" x1="64.001" x2="64.001" y1="39" y2="89" gradientUnits="userSpaceOnUse">
      <stop stop-color="#f3f7fe" />
      <stop offset="1" stop-color="#e6effc" />
    </linearGradient>
    <linearGradient id="thunderstorms-overcast-rain__paint2_linear_1858_9942" x1="64.528" x2="84.414" y1="66.038" y2="77.457" gradientUnits="userSpaceOnUse">
      <stop stop-color="#f7b23b" />
      <stop offset="1" stop-color="#f6a823" />
    </linearGradient>
    <clipPath id="thunderstorms-overcast-rain__clip0_1858_9942">
      <rect width="128" height="128" fill="#fff" />
    </clipPath>
  </defs>
  <g id="thunderstorms-overcast-rain__Secondary Cloud">
    <path id="thunderstorms-overcast-rain__Cloud" fill="url(#thunderstorms-overcast-rain__paint0_linear_1858_9942)" stroke="#94a3b8" stroke-miterlimit="10" d="M83.84 48.693c2.404-3.735 7.375-5.164 11.478-3.516 4.043 1.624 6.496 6.012 5.392 10.26l-.169.653.674-.029c3.281-.137 6.285 2.404 6.285 5.713 0 3.202-2.831 5.726-6.011 5.726H74.977c-3.209 0-6.132-2.382-6.448-5.593-.315-3.2 2.088-6.066 5.235-6.636l.491-.09-.087-.49c-.394-2.198.644-4.442 2.517-5.664 1.926-1.256 4.492-1.32 6.483-.17l.413.237z" />
  </g>
</svg>