<?xml version='1.0' encoding='utf-8'?>
<svg xmlns="http://www.w3.org/2000/svg" fill="none" viewBox="0 0 128 128">
  <defs>
    <linearGradient id="dust-day__paint0_linear_1858_23058" x1="64" x2="64" y1="44" y2="84" gradientUnits="userSpaceOnUse">
      <stop stop-color="#fbbf24" />
      <stop offset="1" stop-color="#f8af18" />
    </linearGradient>
    <clipPath id="dust-day__clip0_1858_23058">
      <rect width="128" height="128" fill="#fff" />
    </clipPath>
  </defs>
  <g id="dust-day__Rays">
    <path fill="#f8af18" d="M61 19a3 3 0 1 1 6 0v14a3 3 0 0 1-6 0zM93.699 30.059A3 3 0 1 1 97.94 34.3l-9.9 9.9a3 3 0 1 1-4.242-4.243zM109 61a3 3 0 1 1 0 6H95a3 3 0 1 1 0-6zM97.941 93.699a3 3 0 1 1-4.243 4.242l-9.899-9.9a3 3 0 1 1 4.243-4.242zM61 95a3 3 0 1 1 6 0v14a3 3 0 1 1-6 0zM39.958 83.799a3 3 0 1 1 4.243 4.243l-9.9 9.9a3 3 0 1 1-4.242-4.243zM33 61a3 3 0 1 1 0 6H19a3 3 0 0 1 0-6zM44.201 39.958a3 3 0 1 1-4.243 4.243l-9.9-9.9a3 3 0 1 1 4.243-4.242z" />
  </g>
</svg>