<svg xmlns="http://www.w3.org/2000/svg" fill="none" viewBox="0 0 128 128"><g id="thunderstorms-overcast__thunderstorms-overcast" clip-path="url(#thunderstorms-overcast__clip0_1858_9917)"><g id="thunderstorms-overcast__Sky"><g id="thunderstorms-overcast__Clouds"><g id="thunderstorms-overcast__Secondary Cloud"><path id="thunderstorms-overcast__Cloud" fill="url(#thunderstorms-overcast__paint0_linear_1858_9917)" stroke="#94a3b8" stroke-miterlimit="10" d="M83.84 48.693c2.404-3.735 7.375-5.164 11.478-3.516 4.043 1.624 6.496 6.012 5.392 10.26l-.169.653.674-.029c3.281-.137 6.285 2.404 6.285 5.713 0 3.202-2.831 5.726-6.011 5.726H74.977c-3.209 0-6.132-2.382-6.448-5.593-.315-3.2 2.088-6.066 5.235-6.636l.491-.09-.087-.49c-.394-2.198.644-4.442 2.517-5.664 1.926-1.256 4.492-1.32 6.483-.17l.413.237z"/></g><g id="thunderstorms-overcast__Cloud_2"><path id="thunderstorms-overcast__Cloud_3" fill="url(#thunderstorms-overcast__paint1_linear_1858_9917)" stroke="#e6effc" stroke-miterlimit="10" d="M55.263 48.475c4.86-7.864 15.035-11.095 23.552-7.532 8.507 3.56 13.323 13.06 11.088 22.022l-.161.65.669-.03c7.01-.306 13.089 5.407 13.089 12.443 0 6.811-5.728 12.472-12.523 12.472H37.954c-6.826.002-12.751-5.33-13.395-12.14-.643-6.808 4.178-13.148 10.884-14.415l.483-.092-.084-.484c-.816-4.745 1.284-9.652 5.263-12.356 3.99-2.712 9.341-2.86 13.475-.373l.423.255z"/></g></g></g><g id="thunderstorms-overcast__Lightning"><path id="thunderstorms-overcast__Lightning Bolt" fill="url(#thunderstorms-overcast__paint2_linear_1858_9917)" stroke="#f6a823" stroke-miterlimit="10" d="m71.173 68.5-7.616 14.541-.384.731h11.829l-18.05 24.12 3.537-16.88.127-.603h-7.912L60.355 68.5z"/></g></g><defs><linearGradient id="thunderstorms-overcast__paint0_linear_1858_9917" x1="88" x2="88" y1="44" y2="68" gradientUnits="userSpaceOnUse"><stop stop-color="#b0bccd"/><stop offset="1" stop-color="#94a3b8"/></linearGradient><linearGradient id="thunderstorms-overcast__paint1_linear_1858_9917" x1="64.001" x2="64.001" y1="39" y2="89" gradientUnits="userSpaceOnUse"><stop stop-color="#f3f7fe"/><stop offset="1" stop-color="#e6effc"/></linearGradient><linearGradient id="thunderstorms-overcast__paint2_linear_1858_9917" x1="64.528" x2="84.414" y1="66.038" y2="77.457" gradientUnits="userSpaceOnUse"><stop stop-color="#f7b23b"/><stop offset="1" stop-color="#f6a823"/></linearGradient><clipPath id="thunderstorms-overcast__clip0_1858_9917"><rect width="128" height="128" fill="#fff"/></clipPath></defs></svg>